<svg width="14" height="14" viewBox="0 0 14 14" fill="none" xmlns="http://www.w3.org/2000/svg">
<path d="M2.625 12.6875C2.2769 12.6875 1.94306 12.5492 1.69692 12.3031C1.45078 12.0569 1.3125 11.7231 1.3125 11.375V2.625C1.3125 2.2769 1.45078 1.94306 1.69692 1.69692C1.94306 1.45078 2.2769 1.3125 2.625 1.3125H9.625C9.74103 1.3125 9.85231 1.35859 9.93436 1.44064C10.0164 1.52269 10.0625 1.63397 10.0625 1.75C10.0625 1.86603 10.0164 1.97731 9.93436 2.05936C9.85231 2.14141 9.74103 2.1875 9.625 2.1875H2.625C2.50897 2.1875 2.39769 2.23359 2.31564 2.31564C2.23359 2.39769 2.1875 2.50897 2.1875 2.625V11.375C2.1875 11.491 2.23359 11.6023 2.31564 11.6844C2.39769 11.7664 2.50897 11.8125 2.625 11.8125H11.375C11.491 11.8125 11.6023 11.7664 11.6844 11.6844C11.7664 11.6023 11.8125 11.491 11.8125 11.375V7C11.8125 6.88397 11.8586 6.77269 11.9406 6.69064C12.0227 6.60859 12.134 6.5625 12.25 6.5625C12.366 6.5625 12.4773 6.60859 12.5594 6.69064C12.6414 6.77269 12.6875 6.88397 12.6875 7V11.375C12.6875 11.7231 12.5492 12.0569 12.3031 12.3031C12.0569 12.5492 11.7231 12.6875 11.375 12.6875H2.625Z" fill="#FF6B00"/>
<path d="M7.30981 9.05981L13.4348 2.93481C13.4755 2.89414 13.5078 2.84585 13.5298 2.7927C13.5518 2.73955 13.5631 2.68259 13.5631 2.62506C13.5631 2.56754 13.5518 2.51058 13.5298 2.45743C13.5078 2.40428 13.4755 2.35599 13.4348 2.31531C13.3941 2.27464 13.3458 2.24237 13.2927 2.22036C13.2396 2.19834 13.1826 2.18701 13.1251 2.18701C13.0675 2.18701 13.0106 2.19834 12.9574 2.22036C12.9043 2.24237 12.856 2.27464 12.8153 2.31531L7.00006 8.13144L4.68481 5.81531C4.64414 5.77464 4.59585 5.74237 4.5427 5.72036C4.48955 5.69834 4.43259 5.68701 4.37506 5.68701C4.31754 5.68701 4.26058 5.69834 4.20743 5.72036C4.15428 5.74237 4.10599 5.77464 4.06531 5.81531C4.02464 5.85599 3.99237 5.90428 3.97036 5.95743C3.94834 6.01058 3.93701 6.06754 3.93701 6.12506C3.93701 6.18259 3.94834 6.23955 3.97036 6.2927C3.99237 6.34585 4.02464 6.39414 4.06531 6.43481L6.69031 9.05981C6.73095 9.10056 6.77923 9.13288 6.83238 9.15494C6.88554 9.17699 6.94252 9.18835 7.00006 9.18835C7.05761 9.18835 7.11459 9.17699 7.16774 9.15494C7.2209 9.13288 7.26917 9.10056 7.30981 9.05981Z" fill="#FF6B00"/>
</svg>
